# xmcd CD database file
#
# Track frame offsets:
#	183
#	16695
#	33498
#	46358
#	70433
#	86695
#	98558
#	111800
#	125958
#	141758
#	158558
#	171128
#	184983
#	198720
#	210945
#
# Disc length: 2969 seconds
#
# Revision: 1
# Processed by: cddbd v1.4PL0 Copyright (c) Steve Scherf et al.
# Submitted via: CDex 1.40Beta8
#
DISCID=cf0b970f
DTITLE=The Righteous Brothers - The Greatest Hits
DYEAR=1900
DGENRE=Vocal
TTITLE0=Unchained Melody
TTITLE1=You've Lost That Lovin Feeling
TTITLE2=Ebb Tide
TTITLE3=(You're My) Soul and Inspiration
TTITLE4=Rat Race
TTITLE5=Turn On Your Love Light
TTITLE6=Hey Girl
TTITLE7=Mine All Mine
TTITLE8=Bring It On Home To Me
TTITLE9=He Will Break Your Heart
TTITLE10=Stand By
TTITLE11=In The Midnight Hour
TTITLE12=He
TTITLE13=I'm Leaving It All Up To You
TTITLE14=A Change Is Gonna Come
EXTD=New Submission ID3G: 28
EXTT0=
EXTT1=
EXTT2=
EXTT3=
EXTT4=
EXTT5=
EXTT6=
EXTT7=
EXTT8=
EXTT9=
EXTT10=
EXTT11=
EXTT12=
EXTT13=
EXTT14=
PLAYORDER=
